<mxfile host="www.draw.io" modified="2020-02-16T20:18:28.070Z" agent="Mozilla/5.0 (Macintosh; Intel Mac OS X 10_14_6) AppleWebKit/537.36 (KHTML, like Gecko) Chrome/79.0.3945.130 Safari/537.36 OPR/66.0.3515.72" etag="dlncCBA5Pe4NGPC30UFp" version="12.7.0" type="github">
  <diagram id="I4_b89pJyK5yKUSI2D77" name="Page-1">
    <mxGraphModel dx="1186" dy="710" grid="1" gridSize="10" guides="1" tooltips="1" connect="1" arrows="1" fold="1" page="1" pageScale="1" pageWidth="1100" pageHeight="850" math="0" shadow="0">
      <root>
        <mxCell id="0"/>
        <mxCell id="1" parent="0"/>
        <mxCell id="msdwBEozecvnglc0cFIi-5" value="" style="outlineConnect=0;fontColor=#232F3E;gradientColor=#945DF2;gradientDirection=north;fillColor=#5A30B5;strokeColor=#ffffff;dashed=0;verticalLabelPosition=bottom;verticalAlign=top;align=center;html=1;fontSize=12;fontStyle=0;aspect=fixed;shape=mxgraph.aws4.resourceIcon;resIcon=mxgraph.aws4.kinesis;" parent="1" vertex="1">
          <mxGeometry x="360" y="250" width="78" height="78" as="geometry"/>
        </mxCell>
        <mxCell id="msdwBEozecvnglc0cFIi-10" style="edgeStyle=orthogonalEdgeStyle;rounded=0;orthogonalLoop=1;jettySize=auto;html=1;exitX=1;exitY=0.5;exitDx=0;exitDy=0;exitPerimeter=0;" parent="1" source="msdwBEozecvnglc0cFIi-9" target="msdwBEozecvnglc0cFIi-5" edge="1">
          <mxGeometry relative="1" as="geometry">
            <Array as="points">
              <mxPoint x="300" y="354"/>
              <mxPoint x="300" y="289"/>
            </Array>
          </mxGeometry>
        </mxCell>
        <mxCell id="KBTJcN20acUAVPkmVkL6-20" style="edgeStyle=orthogonalEdgeStyle;rounded=0;orthogonalLoop=1;jettySize=auto;html=1;" parent="1" source="msdwBEozecvnglc0cFIi-9" target="KBTJcN20acUAVPkmVkL6-18" edge="1">
          <mxGeometry relative="1" as="geometry">
            <Array as="points">
              <mxPoint x="300" y="354"/>
              <mxPoint x="300" y="447"/>
            </Array>
          </mxGeometry>
        </mxCell>
        <mxCell id="dA_Fr0E2Y4Iny53UVIl9-11" style="edgeStyle=orthogonalEdgeStyle;rounded=0;orthogonalLoop=1;jettySize=auto;html=1;" edge="1" parent="1" source="msdwBEozecvnglc0cFIi-9">
          <mxGeometry relative="1" as="geometry">
            <mxPoint x="140" y="354" as="targetPoint"/>
          </mxGeometry>
        </mxCell>
        <mxCell id="msdwBEozecvnglc0cFIi-9" value="" style="outlineConnect=0;dashed=0;verticalLabelPosition=bottom;verticalAlign=top;align=center;html=1;shape=mxgraph.aws3.android;fillColor=#FFD44F;gradientColor=none;" parent="1" vertex="1">
          <mxGeometry x="180" y="312" width="73.5" height="84" as="geometry"/>
        </mxCell>
        <mxCell id="msdwBEozecvnglc0cFIi-11" value="" style="outlineConnect=0;fontColor=#232F3E;gradientColor=#945DF2;gradientDirection=north;fillColor=#5A30B5;strokeColor=#ffffff;dashed=0;verticalLabelPosition=bottom;verticalAlign=top;align=center;html=1;fontSize=12;fontStyle=0;aspect=fixed;shape=mxgraph.aws4.resourceIcon;resIcon=mxgraph.aws4.kinesis_data_firehose;" parent="1" vertex="1">
          <mxGeometry x="612" y="250" width="78" height="78" as="geometry"/>
        </mxCell>
        <mxCell id="KBTJcN20acUAVPkmVkL6-18" value="" style="outlineConnect=0;fontColor=#232F3E;gradientColor=#945DF2;gradientDirection=north;fillColor=#5A30B5;strokeColor=#ffffff;dashed=0;verticalLabelPosition=bottom;verticalAlign=top;align=center;html=1;fontSize=12;fontStyle=0;aspect=fixed;shape=mxgraph.aws4.resourceIcon;resIcon=mxgraph.aws4.kinesis_data_firehose;" parent="1" vertex="1">
          <mxGeometry x="350" y="408" width="78" height="78" as="geometry"/>
        </mxCell>
        <mxCell id="msdwBEozecvnglc0cFIi-16" value="" style="edgeStyle=segmentEdgeStyle;endArrow=classic;html=1;exitX=1;exitY=0.5;exitDx=0;exitDy=0;exitPerimeter=0;" parent="1" target="msdwBEozecvnglc0cFIi-11" edge="1">
          <mxGeometry width="50" height="50" relative="1" as="geometry">
            <mxPoint x="550" y="206" as="sourcePoint"/>
            <mxPoint x="691" y="220" as="targetPoint"/>
            <Array as="points">
              <mxPoint x="641" y="206"/>
              <mxPoint x="641" y="290"/>
            </Array>
          </mxGeometry>
        </mxCell>
        <mxCell id="msdwBEozecvnglc0cFIi-17" value="" style="outlineConnect=0;dashed=0;verticalLabelPosition=bottom;verticalAlign=top;align=center;html=1;shape=mxgraph.aws3.lambda_function;fillColor=#F58534;gradientColor=none;" parent="1" vertex="1">
          <mxGeometry x="490" y="170" width="69" height="72" as="geometry"/>
        </mxCell>
        <mxCell id="msdwBEozecvnglc0cFIi-18" value="" style="edgeStyle=segmentEdgeStyle;endArrow=classic;html=1;entryX=0;entryY=0.5;entryDx=0;entryDy=0;entryPerimeter=0;" parent="1" source="msdwBEozecvnglc0cFIi-5" target="msdwBEozecvnglc0cFIi-17" edge="1">
          <mxGeometry width="50" height="50" relative="1" as="geometry">
            <mxPoint x="490" y="257.5" as="sourcePoint"/>
            <mxPoint x="719" y="257.5" as="targetPoint"/>
            <Array as="points">
              <mxPoint x="410" y="206"/>
            </Array>
          </mxGeometry>
        </mxCell>
        <mxCell id="KBTJcN20acUAVPkmVkL6-5" value="" style="edgeStyle=segmentEdgeStyle;endArrow=classic;html=1;" parent="1" source="KBTJcN20acUAVPkmVkL6-18" target="KBTJcN20acUAVPkmVkL6-2" edge="1">
          <mxGeometry width="50" height="50" relative="1" as="geometry">
            <mxPoint x="478" y="450" as="sourcePoint"/>
            <mxPoint x="528" y="400" as="targetPoint"/>
            <Array as="points"/>
          </mxGeometry>
        </mxCell>
        <mxCell id="KBTJcN20acUAVPkmVkL6-7" value="" style="group" parent="1" vertex="1" connectable="0">
          <mxGeometry x="500" y="408" width="60" height="90" as="geometry"/>
        </mxCell>
        <mxCell id="KBTJcN20acUAVPkmVkL6-2" value="" style="outlineConnect=0;dashed=0;verticalLabelPosition=bottom;verticalAlign=top;align=center;html=1;shape=mxgraph.aws3.bucket_with_objects;fillColor=#E05243;gradientColor=none;" parent="KBTJcN20acUAVPkmVkL6-7" vertex="1">
          <mxGeometry width="60" height="61.5" as="geometry"/>
        </mxCell>
        <mxCell id="KBTJcN20acUAVPkmVkL6-6" value="Raw Data&lt;br&gt;" style="text;html=1;strokeColor=none;fillColor=none;align=center;verticalAlign=middle;whiteSpace=wrap;rounded=0;" parent="KBTJcN20acUAVPkmVkL6-7" vertex="1">
          <mxGeometry x="2.25" y="70" width="55.5" height="20" as="geometry"/>
        </mxCell>
        <mxCell id="KBTJcN20acUAVPkmVkL6-14" value="" style="group" parent="1" vertex="1" connectable="0">
          <mxGeometry x="760" y="250" width="70" height="100" as="geometry"/>
        </mxCell>
        <mxCell id="KBTJcN20acUAVPkmVkL6-3" value="" style="outlineConnect=0;dashed=0;verticalLabelPosition=bottom;verticalAlign=top;align=center;html=1;shape=mxgraph.aws3.bucket_with_objects;fillColor=#E05243;gradientColor=none;" parent="KBTJcN20acUAVPkmVkL6-14" vertex="1">
          <mxGeometry x="5" y="-7.76" width="60" height="68.52367688022285" as="geometry"/>
        </mxCell>
        <mxCell id="KBTJcN20acUAVPkmVkL6-13" value="Clean Data" style="text;html=1;strokeColor=none;fillColor=none;align=center;verticalAlign=middle;whiteSpace=wrap;rounded=0;" parent="KBTJcN20acUAVPkmVkL6-14" vertex="1">
          <mxGeometry y="68.52587743732592" width="70" height="22.284122562674096" as="geometry"/>
        </mxCell>
        <mxCell id="KBTJcN20acUAVPkmVkL6-17" style="edgeStyle=orthogonalEdgeStyle;rounded=0;orthogonalLoop=1;jettySize=auto;html=1;" parent="1" source="msdwBEozecvnglc0cFIi-11" target="KBTJcN20acUAVPkmVkL6-3" edge="1">
          <mxGeometry relative="1" as="geometry">
            <mxPoint x="851" y="390" as="sourcePoint"/>
            <Array as="points">
              <mxPoint x="781" y="289"/>
              <mxPoint x="781" y="289"/>
            </Array>
          </mxGeometry>
        </mxCell>
        <mxCell id="54J6BA97mhN1NG6WMX5h-1" value="" style="shape=image;html=1;verticalAlign=top;verticalLabelPosition=bottom;labelBackgroundColor=#ffffff;imageAspect=0;aspect=fixed;image=https://cdn2.iconfinder.com/data/icons/amazon-aws-stencils/100/Database_copy_DynamoDB-128.png" parent="1" vertex="1">
          <mxGeometry x="900" y="80" width="128" height="128" as="geometry"/>
        </mxCell>
        <mxCell id="54J6BA97mhN1NG6WMX5h-2" value="" style="outlineConnect=0;fontColor=#232F3E;gradientColor=#945DF2;gradientDirection=north;fillColor=#5A30B5;strokeColor=#ffffff;dashed=0;verticalLabelPosition=bottom;verticalAlign=top;align=center;html=1;fontSize=12;fontStyle=0;aspect=fixed;shape=mxgraph.aws4.resourceIcon;resIcon=mxgraph.aws4.glue;" parent="1" vertex="1">
          <mxGeometry x="925" y="245" width="78" height="78" as="geometry"/>
        </mxCell>
        <mxCell id="54J6BA97mhN1NG6WMX5h-4" value="" style="outlineConnect=0;fontColor=#232F3E;gradientColor=#945DF2;gradientDirection=north;fillColor=#5A30B5;strokeColor=#ffffff;dashed=0;verticalLabelPosition=bottom;verticalAlign=top;align=center;html=1;fontSize=12;fontStyle=0;aspect=fixed;shape=mxgraph.aws4.resourceIcon;resIcon=mxgraph.aws4.athena;" parent="1" vertex="1">
          <mxGeometry x="925" y="395" width="78" height="78" as="geometry"/>
        </mxCell>
        <mxCell id="dA_Fr0E2Y4Iny53UVIl9-10" value="" style="group" vertex="1" connectable="0" parent="1">
          <mxGeometry x="70" y="269" width="70" height="170" as="geometry"/>
        </mxCell>
        <mxCell id="dA_Fr0E2Y4Iny53UVIl9-5" value="" style="rounded=1;whiteSpace=wrap;html=1;" vertex="1" parent="dA_Fr0E2Y4Iny53UVIl9-10">
          <mxGeometry width="70" height="150" as="geometry"/>
        </mxCell>
        <mxCell id="dA_Fr0E2Y4Iny53UVIl9-1" value="" style="pointerEvents=1;shadow=0;dashed=0;html=1;strokeColor=none;fillColor=#434445;aspect=fixed;labelPosition=center;verticalLabelPosition=bottom;verticalAlign=top;align=center;outlineConnect=0;shape=mxgraph.vvd.log_files;" vertex="1" parent="dA_Fr0E2Y4Iny53UVIl9-10">
          <mxGeometry x="15" y="20" width="40" height="50" as="geometry"/>
        </mxCell>
        <mxCell id="dA_Fr0E2Y4Iny53UVIl9-2" value="" style="html=1;dashed=0;whitespace=wrap;fillColor=#2875E2;strokeColor=#ffffff;points=[[0.005,0.63,0],[0.1,0.2,0],[0.9,0.2,0],[0.5,0,0],[0.995,0.63,0],[0.72,0.99,0],[0.5,1,0],[0.28,0.99,0]];shape=mxgraph.kubernetes.icon;prIcon=api" vertex="1" parent="dA_Fr0E2Y4Iny53UVIl9-10">
          <mxGeometry x="10" y="80" width="50" height="48" as="geometry"/>
        </mxCell>
        <mxCell id="dA_Fr0E2Y4Iny53UVIl9-7" style="edgeStyle=orthogonalEdgeStyle;rounded=0;orthogonalLoop=1;jettySize=auto;html=1;exitX=0.5;exitY=1;exitDx=0;exitDy=0;" edge="1" parent="dA_Fr0E2Y4Iny53UVIl9-10" source="dA_Fr0E2Y4Iny53UVIl9-5" target="dA_Fr0E2Y4Iny53UVIl9-5">
          <mxGeometry relative="1" as="geometry"/>
        </mxCell>
        <mxCell id="dA_Fr0E2Y4Iny53UVIl9-8" value="Source" style="text;html=1;strokeColor=none;fillColor=none;align=center;verticalAlign=middle;whiteSpace=wrap;rounded=0;" vertex="1" parent="dA_Fr0E2Y4Iny53UVIl9-10">
          <mxGeometry x="15" y="150" width="40" height="20" as="geometry"/>
        </mxCell>
      </root>
    </mxGraphModel>
  </diagram>
</mxfile>
